<mxfile host="app.diagrams.net" agent="Mozilla/5.0 (Windows NT 10.0; Win64; x64) AppleWebKit/537.36 (KHTML, like Gecko) Chrome/131.0.0.0 Safari/537.36" version="25.0.3">
  <diagram name="Page-1" id="cvGQR_CKBCZZWP8tipB_">
    <mxGraphModel dx="1434" dy="752" grid="1" gridSize="10" guides="1" tooltips="1" connect="1" arrows="1" fold="1" page="1" pageScale="1" pageWidth="827" pageHeight="1169" math="0" shadow="0">
      <root>
        <mxCell id="0" />
        <mxCell id="1" parent="0" />
        <mxCell id="kvW1VVwQ4_FO1Fb3OOhK-2" value="&lt;b&gt;Kactus&lt;/b&gt;" style="rounded=1;whiteSpace=wrap;html=1;verticalAlign=top;fillColor=#d5e8d4;strokeColor=#82b366;" vertex="1" parent="1">
          <mxGeometry x="40" y="100" width="180" height="140" as="geometry" />
        </mxCell>
        <mxCell id="kvW1VVwQ4_FO1Fb3OOhK-3" value="Novedades" style="rounded=1;whiteSpace=wrap;html=1;" vertex="1" parent="1">
          <mxGeometry x="70" y="140" width="120" height="30" as="geometry" />
        </mxCell>
        <mxCell id="kvW1VVwQ4_FO1Fb3OOhK-20" style="edgeStyle=orthogonalEdgeStyle;rounded=0;orthogonalLoop=1;jettySize=auto;html=1;" edge="1" parent="1" source="kvW1VVwQ4_FO1Fb3OOhK-4" target="kvW1VVwQ4_FO1Fb3OOhK-6">
          <mxGeometry relative="1" as="geometry" />
        </mxCell>
        <mxCell id="kvW1VVwQ4_FO1Fb3OOhK-4" value="" style="strokeWidth=2;html=1;shape=mxgraph.flowchart.database;whiteSpace=wrap;" vertex="1" parent="1">
          <mxGeometry x="330" y="125" width="60" height="60" as="geometry" />
        </mxCell>
        <mxCell id="kvW1VVwQ4_FO1Fb3OOhK-5" style="edgeStyle=orthogonalEdgeStyle;rounded=0;orthogonalLoop=1;jettySize=auto;html=1;entryX=0;entryY=0.5;entryDx=0;entryDy=0;entryPerimeter=0;" edge="1" parent="1" source="kvW1VVwQ4_FO1Fb3OOhK-3" target="kvW1VVwQ4_FO1Fb3OOhK-4">
          <mxGeometry relative="1" as="geometry" />
        </mxCell>
        <mxCell id="kvW1VVwQ4_FO1Fb3OOhK-6" value="Tabla Novedades" style="shape=table;startSize=30;container=1;collapsible=0;childLayout=tableLayout;strokeColor=default;fontSize=16;" vertex="1" parent="1">
          <mxGeometry x="290" y="220" width="140" height="100" as="geometry" />
        </mxCell>
        <mxCell id="kvW1VVwQ4_FO1Fb3OOhK-7" value="" style="shape=tableRow;horizontal=0;startSize=0;swimlaneHead=0;swimlaneBody=0;strokeColor=inherit;top=0;left=0;bottom=0;right=0;collapsible=0;dropTarget=0;fillColor=none;points=[[0,0.5],[1,0.5]];portConstraint=eastwest;fontSize=16;" vertex="1" parent="kvW1VVwQ4_FO1Fb3OOhK-6">
          <mxGeometry y="30" width="140" height="24" as="geometry" />
        </mxCell>
        <mxCell id="kvW1VVwQ4_FO1Fb3OOhK-8" value="" style="shape=partialRectangle;html=1;whiteSpace=wrap;connectable=0;strokeColor=inherit;overflow=hidden;fillColor=none;top=0;left=0;bottom=0;right=0;pointerEvents=1;fontSize=16;" vertex="1" parent="kvW1VVwQ4_FO1Fb3OOhK-7">
          <mxGeometry width="47" height="24" as="geometry">
            <mxRectangle width="47" height="24" as="alternateBounds" />
          </mxGeometry>
        </mxCell>
        <mxCell id="kvW1VVwQ4_FO1Fb3OOhK-9" value="" style="shape=partialRectangle;html=1;whiteSpace=wrap;connectable=0;strokeColor=inherit;overflow=hidden;fillColor=none;top=0;left=0;bottom=0;right=0;pointerEvents=1;fontSize=16;" vertex="1" parent="kvW1VVwQ4_FO1Fb3OOhK-7">
          <mxGeometry x="47" width="46" height="24" as="geometry">
            <mxRectangle width="46" height="24" as="alternateBounds" />
          </mxGeometry>
        </mxCell>
        <mxCell id="kvW1VVwQ4_FO1Fb3OOhK-10" value="" style="shape=partialRectangle;html=1;whiteSpace=wrap;connectable=0;strokeColor=inherit;overflow=hidden;fillColor=none;top=0;left=0;bottom=0;right=0;pointerEvents=1;fontSize=16;" vertex="1" parent="kvW1VVwQ4_FO1Fb3OOhK-7">
          <mxGeometry x="93" width="47" height="24" as="geometry">
            <mxRectangle width="47" height="24" as="alternateBounds" />
          </mxGeometry>
        </mxCell>
        <mxCell id="kvW1VVwQ4_FO1Fb3OOhK-11" value="" style="shape=tableRow;horizontal=0;startSize=0;swimlaneHead=0;swimlaneBody=0;strokeColor=inherit;top=0;left=0;bottom=0;right=0;collapsible=0;dropTarget=0;fillColor=none;points=[[0,0.5],[1,0.5]];portConstraint=eastwest;fontSize=16;" vertex="1" parent="kvW1VVwQ4_FO1Fb3OOhK-6">
          <mxGeometry y="54" width="140" height="22" as="geometry" />
        </mxCell>
        <mxCell id="kvW1VVwQ4_FO1Fb3OOhK-12" value="" style="shape=partialRectangle;html=1;whiteSpace=wrap;connectable=0;strokeColor=inherit;overflow=hidden;fillColor=none;top=0;left=0;bottom=0;right=0;pointerEvents=1;fontSize=16;" vertex="1" parent="kvW1VVwQ4_FO1Fb3OOhK-11">
          <mxGeometry width="47" height="22" as="geometry">
            <mxRectangle width="47" height="22" as="alternateBounds" />
          </mxGeometry>
        </mxCell>
        <mxCell id="kvW1VVwQ4_FO1Fb3OOhK-13" value="" style="shape=partialRectangle;html=1;whiteSpace=wrap;connectable=0;strokeColor=inherit;overflow=hidden;fillColor=none;top=0;left=0;bottom=0;right=0;pointerEvents=1;fontSize=16;" vertex="1" parent="kvW1VVwQ4_FO1Fb3OOhK-11">
          <mxGeometry x="47" width="46" height="22" as="geometry">
            <mxRectangle width="46" height="22" as="alternateBounds" />
          </mxGeometry>
        </mxCell>
        <mxCell id="kvW1VVwQ4_FO1Fb3OOhK-14" value="" style="shape=partialRectangle;html=1;whiteSpace=wrap;connectable=0;strokeColor=inherit;overflow=hidden;fillColor=none;top=0;left=0;bottom=0;right=0;pointerEvents=1;fontSize=16;" vertex="1" parent="kvW1VVwQ4_FO1Fb3OOhK-11">
          <mxGeometry x="93" width="47" height="22" as="geometry">
            <mxRectangle width="47" height="22" as="alternateBounds" />
          </mxGeometry>
        </mxCell>
        <mxCell id="kvW1VVwQ4_FO1Fb3OOhK-15" value="" style="shape=tableRow;horizontal=0;startSize=0;swimlaneHead=0;swimlaneBody=0;strokeColor=inherit;top=0;left=0;bottom=0;right=0;collapsible=0;dropTarget=0;fillColor=none;points=[[0,0.5],[1,0.5]];portConstraint=eastwest;fontSize=16;" vertex="1" parent="kvW1VVwQ4_FO1Fb3OOhK-6">
          <mxGeometry y="76" width="140" height="24" as="geometry" />
        </mxCell>
        <mxCell id="kvW1VVwQ4_FO1Fb3OOhK-16" value="" style="shape=partialRectangle;html=1;whiteSpace=wrap;connectable=0;strokeColor=inherit;overflow=hidden;fillColor=none;top=0;left=0;bottom=0;right=0;pointerEvents=1;fontSize=16;" vertex="1" parent="kvW1VVwQ4_FO1Fb3OOhK-15">
          <mxGeometry width="47" height="24" as="geometry">
            <mxRectangle width="47" height="24" as="alternateBounds" />
          </mxGeometry>
        </mxCell>
        <mxCell id="kvW1VVwQ4_FO1Fb3OOhK-17" value="" style="shape=partialRectangle;html=1;whiteSpace=wrap;connectable=0;strokeColor=inherit;overflow=hidden;fillColor=none;top=0;left=0;bottom=0;right=0;pointerEvents=1;fontSize=16;" vertex="1" parent="kvW1VVwQ4_FO1Fb3OOhK-15">
          <mxGeometry x="47" width="46" height="24" as="geometry">
            <mxRectangle width="46" height="24" as="alternateBounds" />
          </mxGeometry>
        </mxCell>
        <mxCell id="kvW1VVwQ4_FO1Fb3OOhK-18" value="" style="shape=partialRectangle;html=1;whiteSpace=wrap;connectable=0;strokeColor=inherit;overflow=hidden;fillColor=none;top=0;left=0;bottom=0;right=0;pointerEvents=1;fontSize=16;" vertex="1" parent="kvW1VVwQ4_FO1Fb3OOhK-15">
          <mxGeometry x="93" width="47" height="24" as="geometry">
            <mxRectangle width="47" height="24" as="alternateBounds" />
          </mxGeometry>
        </mxCell>
        <mxCell id="kvW1VVwQ4_FO1Fb3OOhK-22" value="&lt;b&gt;IAM&lt;/b&gt;" style="rounded=1;whiteSpace=wrap;html=1;verticalAlign=top;fillColor=#dae8fc;strokeColor=#6c8ebf;" vertex="1" parent="1">
          <mxGeometry x="660" y="100" width="180" height="140" as="geometry" />
        </mxCell>
        <mxCell id="kvW1VVwQ4_FO1Fb3OOhK-23" style="edgeStyle=orthogonalEdgeStyle;rounded=0;orthogonalLoop=1;jettySize=auto;html=1;entryX=1;entryY=0.136;entryDx=0;entryDy=0;entryPerimeter=0;" edge="1" parent="1" source="kvW1VVwQ4_FO1Fb3OOhK-22" target="kvW1VVwQ4_FO1Fb3OOhK-11">
          <mxGeometry relative="1" as="geometry">
            <Array as="points">
              <mxPoint x="570" y="170" />
              <mxPoint x="570" y="277" />
            </Array>
          </mxGeometry>
        </mxCell>
        <mxCell id="kvW1VVwQ4_FO1Fb3OOhK-24" value="Consulta Novedadess" style="edgeLabel;html=1;align=center;verticalAlign=middle;resizable=0;points=[];" vertex="1" connectable="0" parent="kvW1VVwQ4_FO1Fb3OOhK-23">
          <mxGeometry x="0.6914" y="1" relative="1" as="geometry">
            <mxPoint x="38" y="18" as="offset" />
          </mxGeometry>
        </mxCell>
        <mxCell id="kvW1VVwQ4_FO1Fb3OOhK-28" style="edgeStyle=orthogonalEdgeStyle;rounded=0;orthogonalLoop=1;jettySize=auto;html=1;entryX=1;entryY=0.25;entryDx=0;entryDy=0;" edge="1" parent="1" source="kvW1VVwQ4_FO1Fb3OOhK-25" target="kvW1VVwQ4_FO1Fb3OOhK-22">
          <mxGeometry relative="1" as="geometry" />
        </mxCell>
        <mxCell id="kvW1VVwQ4_FO1Fb3OOhK-25" value="APP1" style="rounded=1;whiteSpace=wrap;html=1;" vertex="1" parent="1">
          <mxGeometry x="920" y="70" width="120" height="40" as="geometry" />
        </mxCell>
        <mxCell id="kvW1VVwQ4_FO1Fb3OOhK-29" style="edgeStyle=orthogonalEdgeStyle;rounded=0;orthogonalLoop=1;jettySize=auto;html=1;entryX=1;entryY=0.5;entryDx=0;entryDy=0;" edge="1" parent="1" source="kvW1VVwQ4_FO1Fb3OOhK-26" target="kvW1VVwQ4_FO1Fb3OOhK-22">
          <mxGeometry relative="1" as="geometry" />
        </mxCell>
        <mxCell id="kvW1VVwQ4_FO1Fb3OOhK-26" value="APP2" style="rounded=1;whiteSpace=wrap;html=1;" vertex="1" parent="1">
          <mxGeometry x="920" y="150" width="120" height="40" as="geometry" />
        </mxCell>
        <mxCell id="kvW1VVwQ4_FO1Fb3OOhK-31" style="edgeStyle=orthogonalEdgeStyle;rounded=0;orthogonalLoop=1;jettySize=auto;html=1;entryX=1;entryY=0.75;entryDx=0;entryDy=0;" edge="1" parent="1" source="kvW1VVwQ4_FO1Fb3OOhK-27" target="kvW1VVwQ4_FO1Fb3OOhK-22">
          <mxGeometry relative="1" as="geometry" />
        </mxCell>
        <mxCell id="kvW1VVwQ4_FO1Fb3OOhK-27" value="APP3" style="rounded=1;whiteSpace=wrap;html=1;" vertex="1" parent="1">
          <mxGeometry x="920" y="230" width="120" height="40" as="geometry" />
        </mxCell>
      </root>
    </mxGraphModel>
  </diagram>
</mxfile>
